<?xml version="1.0" encoding="utf-8"?>
<!-- Generator: Adobe Illustrator 24.1.1, SVG Export Plug-In . SVG Version: 6.00 Build 0)  -->
<svg version="1.1" id="Layer_1" xmlns="http://www.w3.org/2000/svg" xmlns:xlink="http://www.w3.org/1999/xlink" x="0px" y="0px"
	 viewBox="0 0 512 512" style="enable-background:new 0 0 512 512;" xml:space="preserve">
<style type="text/css">
	.st0{fill:#1FD3EF;}
	.st1{fill:#5D5D5D;}
</style>
<g>
	<path class="st0" d="M260.4,212.8h19.1c16.1,23.2,32.7,47.6,49.5,71.8c16.7-24.1,32.8-48.3,49-71.8H397V299h-12.6v-73.9L333.6,299
		l-9.7,0l-50.8-73.9L273,299h-12.7V212.8"/>
	<path class="st1" d="M428,244.2c0,0-7.8,0.1-10.9,0.1c-1.8-21.8,4.3-29.4,22.2-30.9c19.6-0.7,33.8-0.4,51.5,0
		c13.1,1,19.1,6.2,20.8,19.3c0.5,4.1,0.6,8.4,0.3,12.6c-0.9,12.2-6.4,18.2-18.7,19.4c-14.7,1.4-29.4,2.3-44,3.5
		c-4,0.3-8.1,0.7-12,1.5c-7.3,1.5-10,3.2-10.4,10.5c-0.1,2.6,0.1,6.3,0.1,9.5h85l0.1,9.5h-95.2c0.1-7.3-0.6-15.4,0.5-22.7
		c1.5-10,8.1-14.8,17.3-16.4c15.2-2.7,30.7-2.6,46.1-4c3.7-0.3,7.3-0.8,10.9-1.3c2.3-0.4,3.7-0.1,6-2.5c4.3-2.5,3.7-14.3,2.6-22
		c-1.3-5.7-6.8-8.1-12.2-8.3c-15.8-0.6-31.6-0.6-47.3,0c-7.8,0.3-11.9,4.9-12.5,13.5C427.9,238.1,428,244.2,428,244.2"/>
	<path class="st0" d="M151,222.8l0-10.3c0,0,50.6,0,73.3,0c15.1,0,21.8,6.7,22.1,21.8c0.1,4.7-0.1,9.4-0.7,14.2
		c-1.2,9.7-6.3,15-16.1,16.6c-6.5,1-12.9,0.6-19.4,0.6c-15.6,0.1-31.2,0-47.5,0V299h-11.7v-43.7c0,0,44.4,0.3,63.7,0
		c14.8-0.2,20.7-1.3,18.5-21.5c-0.9-7.9-3.8-10.6-12.1-10.8C207.4,222.8,151,222.8,151,222.8"/>
	<path class="st0" d="M63.6,299.5c-18.2,0-36.4,0-54.7,0c-6.4,0-9.8-3.8-8.8-9.5c0.9-5.2,4.5-6.5,9.2-6.5c33.1,0.1,66.2,0,99.3,0
		c3.5,0,7-0.1,10.5,0c5.4,0.2,8.4,3.1,8.5,7.9c0.1,4.8-3,7.9-8.4,8C100.8,299.5,82.2,299.5,63.6,299.5"/>
	<path class="st1" d="M63.6,265.5c-18.2,0-36.4,0-54.7,0c-6.4,0-9.8-3.8-8.8-9.5c0.9-5.2,4.5-6.5,9.2-6.5c33.1,0.1,66.2,0,99.3,0
		c3.5,0,7-0.1,10.5,0c5.4,0.2,8.4,3.1,8.5,7.9c0.1,4.8-3,7.9-8.4,8C100.8,265.6,82.2,265.5,63.6,265.5"/>
	<path class="st0" d="M63.6,229.7c-18.2,0-36.4,0-54.7,0c-6.4,0-9.8-3.8-8.8-9.5c0.9-5.2,4.5-6.5,9.2-6.5c33.1,0.1,66.2,0,99.3,0
		c3.5,0,7-0.1,10.5,0c5.4,0.2,8.4,3.1,8.5,7.9c0.1,4.8-3,7.9-8.4,8C100.8,229.8,82.2,229.7,63.6,229.7"/>
</g>
</svg>
